<?xml version="1.0" encoding="utf-8"?>
<!-- Generator: Adobe Illustrator 27.7.0, SVG Export Plug-In . SVG Version: 6.00 Build 0)  -->
<svg version="1.1" id="Layer_1" xmlns="http://www.w3.org/2000/svg" xmlns:xlink="http://www.w3.org/1999/xlink" x="0px" y="0px"
	 viewBox="0 0 200 200" style="enable-background:new 0 0 200 200;" xml:space="preserve">
<style type="text/css">
	.st0{fill:#FFFFFF;}
	.st1{fill:#01BE96;}
</style>
<image style="overflow:visible;enable-background:new    ;" width="849" height="922" xlink:href="33154044.png"  transform="matrix(0.1449 0 0 0.1449 -242.3697 17.5322)">
</image>
<g>
	<g>
		<path class="st0" d="M59.5,139.6L53.9,161l-4.2-1.1l2.3-8.7l-9.6-2.5l-2.3,8.7l-4.2-1.1l5.6-21.4l4.2,1.1l-2.2,8.6l9.5,2.5
			l2.2-8.6L59.5,139.6z"/>
	</g>
</g>
<g>
	<g>
		<path class="st0" d="M59,151.3c0.4-1.5,1-2.8,1.9-4c0.9-1.2,2-2.1,3.2-2.9s2.6-1.2,4.1-1.5c1.5-0.2,3-0.2,4.5,0.2
			c1.5,0.4,2.8,1,4,2c1.2,0.9,2.1,2,2.9,3.3c0.8,1.3,1.2,2.6,1.5,4.1c0.2,1.5,0.2,2.9-0.2,4.4c-0.4,1.5-1.1,2.9-2,4
			c-0.9,1.2-2,2.1-3.3,2.9s-2.6,1.2-4.1,1.4c-1.5,0.2-2.9,0.1-4.4-0.2c-1.5-0.4-2.8-1-4-1.9s-2.1-2-2.9-3.2
			c-0.7-1.3-1.2-2.6-1.4-4.1C58.5,154.3,58.6,152.8,59,151.3z M63.4,152.4c-0.2,0.9-0.3,1.9-0.2,2.8c0.1,0.9,0.4,1.8,0.9,2.6
			c0.4,0.8,1,1.5,1.7,2s1.5,1,2.5,1.2c0.9,0.2,1.8,0.3,2.7,0.1s1.7-0.5,2.4-0.9c0.7-0.5,1.4-1.1,1.9-1.8s0.9-1.6,1.2-2.5
			c0.2-1,0.3-1.9,0.2-2.8c-0.1-0.9-0.4-1.8-0.8-2.6c-0.4-0.8-1-1.4-1.7-2s-1.5-0.9-2.4-1.2c-0.9-0.2-1.8-0.3-2.7-0.1
			c-0.9,0.1-1.7,0.4-2.5,0.9s-1.4,1.1-2,1.8C64,150.6,63.6,151.4,63.4,152.4z"/>
	</g>
</g>
<g>
	<g>
		<path class="st0" d="M133.8,142.3l4.2-1.1l5.5,21.4l-4.2,1.1L133.8,142.3z"/>
	</g>
</g>
<g>
	<g>
		<path class="st1" d="M95.4,152.3c-0.8-0.5-1.7-0.9-2.5-1.2s-1.7-0.5-2.4-0.5c-0.9,0-1.7,0.1-2.2,0.5c-0.6,0.4-0.8,0.9-0.9,1.7
			c0,0.5,0.2,1,0.6,1.4c0.4,0.4,0.9,0.8,1.6,1.1s1.3,0.7,2,0.9c0.6,0.3,1.2,0.6,1.9,0.9c0.6,0.4,1.2,0.8,1.7,1.3s0.9,1.1,1.1,1.9
			c0.3,0.7,0.4,1.6,0.3,2.7c0,1.1-0.4,2.1-1,3.1s-1.5,1.7-2.6,2.2s-2.5,0.8-4.2,0.7c-0.8,0-1.7-0.1-2.6-0.4s-1.7-0.5-2.5-0.9
			c-0.8-0.4-1.6-0.9-2.4-1.4l2-3.3c0.5,0.4,1.1,0.8,1.7,1.1c0.6,0.3,1.2,0.6,1.8,0.7c0.6,0.2,1.2,0.3,1.7,0.3s1.1,0,1.6-0.2
			c0.5-0.1,1-0.4,1.3-0.7c0.4-0.4,0.6-0.8,0.6-1.5c0-0.4-0.1-0.8-0.4-1.2c-0.3-0.4-0.7-0.7-1.1-1c-0.5-0.3-1-0.6-1.6-0.8
			c-0.7-0.3-1.4-0.6-2.1-1s-1.4-0.8-2-1.3c-0.6-0.5-1.1-1.1-1.5-1.9s-0.5-1.6-0.5-2.7c0.1-1.3,0.4-2.4,1-3.3s1.4-1.6,2.5-2.1
			c1.1-0.5,2.3-0.8,3.6-0.8c1.8,0.1,3.2,0.3,4.3,0.8c1.1,0.5,2.1,1,2.9,1.6L95.4,152.3z"/>
	</g>
</g>
<g>
	<g>
		<path class="st0" d="M116.1,146.5l14.8-3l0.8,4.1l-10.5,2.1l0.9,4.6l9.3-1.9l0.8,4.1l-9.3,1.9l0.9,4.7l10.9-2.2l0.8,4.1l-15.2,3.1
			L116.1,146.5z"/>
	</g>
</g>
<g>
	<g>
		<path class="st1" d="M113.1,151.7c-0.9-0.4-1.8-0.6-2.7-0.8s-1.7-0.2-2.5-0.1c-0.9,0.1-1.6,0.4-2.1,0.9c-0.5,0.4-0.7,1.1-0.6,1.8
			c0.1,0.5,0.3,0.9,0.8,1.3s1,0.6,1.7,0.9c0.7,0.2,1.4,0.4,2.1,0.6c0.7,0.2,1.3,0.4,2,0.6c0.7,0.2,1.3,0.6,1.8,1s1,1,1.4,1.7
			s0.7,1.6,0.8,2.6c0.1,1.1,0,2.2-0.5,3.2c-0.4,1-1.2,1.9-2.2,2.6c-1,0.7-2.4,1.2-4,1.4c-0.8,0.1-1.7,0.1-2.6,0.1
			c-0.9-0.1-1.8-0.2-2.6-0.4c-0.9-0.2-1.7-0.6-2.6-1l1.5-3.6c0.6,0.3,1.2,0.6,1.8,0.8c0.6,0.2,1.3,0.4,1.9,0.4
			c0.6,0.1,1.2,0.1,1.7,0c0.5-0.1,1-0.2,1.5-0.4c0.5-0.2,0.9-0.5,1.2-0.9c0.3-0.4,0.4-0.9,0.3-1.6c-0.1-0.4-0.2-0.8-0.6-1.1
			c-0.3-0.3-0.8-0.6-1.3-0.8c-0.5-0.2-1.1-0.4-1.7-0.6c-0.7-0.2-1.4-0.4-2.2-0.6c-0.8-0.2-1.5-0.6-2.2-1c-0.7-0.4-1.3-0.9-1.8-1.6
			s-0.8-1.5-0.9-2.6c-0.2-1.3,0-2.4,0.4-3.4c0.4-1,1.2-1.9,2.1-2.5s2.1-1.1,3.4-1.4c1.8-0.2,3.2-0.2,4.4,0.1
			c1.2,0.3,2.2,0.6,3.2,1.1L113.1,151.7z"/>
	</g>
</g>
<g>
	<g>
		<path class="st0" d="M166.9,157.6l-21.2-9.7l1.5,0.3l4.3,13.3l-4.3,1.4l-7.2-22.7l0.2-0.1l20.9,9.8l-1.1-0.1l-4.4-13.6l4.3-1.4
			l7.2,22.7L166.9,157.6z"/>
	</g>
</g>
<image style="overflow:visible;" width="2000" height="2000" xlink:href="logo98.png"  transform="matrix(0.1461 0 0 0.1461 -46.1138 -65.6902)">
</image>
</svg>
